<svg width="146" height="33" viewBox="0 0 146 33" fill="none" xmlns="http://www.w3.org/2000/svg">
<path fill-rule="evenodd" clip-rule="evenodd" d="M28.4324 11.3318L14.0837 31.8854C14.0459 31.9495 14.0345 32.0257 14.0519 32.0981C14.0692 32.1704 14.114 32.2332 14.1768 32.2732C14.2264 32.301 14.2828 32.3144 14.3397 32.3119H28.6884C28.7721 32.314 28.8532 32.2831 28.9142 32.2257C28.9752 32.1683 29.0111 32.0892 29.0141 32.0056V11.5024C29.0194 11.4313 28.9996 11.3605 28.9582 11.3023C28.9168 11.2442 28.8565 11.2023 28.7875 11.1839C28.7186 11.1655 28.6453 11.1718 28.5805 11.2016C28.5157 11.2315 28.4633 11.283 28.4324 11.3473V11.3318Z" fill="#F4A626"/>
<path fill-rule="evenodd" clip-rule="evenodd" d="M28.42 0.329312H22.285C22.2228 0.328978 22.1615 0.343618 22.1061 0.371965C22.0508 0.400312 22.0031 0.441552 21.967 0.492206L0.0406065 31.8732C0.00303987 31.9367 -0.0090432 32.012 0.0067944 32.0839C0.022632 32.1559 0.0652093 32.2192 0.125924 32.261C0.177134 32.2923 0.236664 32.3072 0.296558 32.3037H6.43161C6.49379 32.304 6.55513 32.2894 6.61048 32.261C6.66582 32.2327 6.71354 32.1915 6.74961 32.1408L28.6876 0.759815C28.7275 0.697373 28.7413 0.621752 28.7261 0.54925C28.7108 0.476748 28.6678 0.413142 28.6062 0.372012C28.5502 0.338574 28.485 0.323606 28.42 0.329312Z" fill="#F4A626"/>
<path d="M52.0781 10.1336H47.6881L46.9862 12.2083H43.9846L48.2505 0.446289H51.57L55.8359 12.2083H52.8033L52.0781 10.1336ZM51.3412 7.91926L49.8831 3.61466L48.4444 7.91926H51.3412Z" fill="white"/>
<path d="M67.7992 12.2083H64.9372L60.1439 4.95256V12.2083H57.2781V0.446289H60.1439L64.9372 7.737V0.446289H67.7992V12.2083Z" fill="white"/>
<path d="M81.3734 12.2083H78.5036L73.7143 4.95256V12.2083H70.8484V0.446289H73.7143L78.5036 7.737V0.446289H81.3734V12.2083Z" fill="white"/>
<path d="M90.9391 10.1336H86.5492L85.8473 12.2083H82.8457L87.1115 0.446289H90.4273L94.6931 12.2083H91.6605L90.9391 10.1336ZM90.2023 7.91926L88.7442 3.61466L87.3054 7.91926H90.2023Z" fill="white"/>
<path d="M47.6344 20.5537V32.3158H44.7686V20.5537H47.6344Z" fill="white"/>
<path d="M61.209 32.3154H58.3431L53.5383 25.0751V32.3309H50.6763V20.5688H53.5383L58.3315 27.8596V20.5688H61.209V32.3154Z" fill="white"/>
<path d="M64.0929 23.3108C64.58 22.4168 65.31 21.6787 66.1986 21.1818C67.1316 20.6598 68.1855 20.3923 69.2545 20.4062C70.5391 20.3716 71.7994 20.7599 72.8417 21.5115C73.8392 22.2525 74.5447 23.3203 74.835 24.5285H71.6783C71.4667 24.062 71.1194 23.67 70.6816 23.4039C70.2377 23.1428 69.7307 23.0087 69.2158 23.0161C68.8127 23.0019 68.4114 23.0769 68.0407 23.2358C67.6699 23.3947 67.3389 23.6335 67.0712 23.9352C66.5379 24.6462 66.2495 25.5109 66.2495 26.3997C66.2495 27.2885 66.5379 28.1532 67.0712 28.8642C67.3389 29.1659 67.6699 29.4047 68.0407 29.5636C68.4114 29.7225 68.8127 29.7975 69.2158 29.7833C69.7307 29.7907 70.2377 29.6566 70.6816 29.3955C71.1194 29.1293 71.4667 28.7374 71.6783 28.2708H74.8273C74.5378 29.4773 73.8319 30.543 72.8339 31.2802C71.79 32.0277 70.5302 32.4131 69.2468 32.3777C68.1775 32.3932 67.1233 32.1256 66.1909 31.6021C65.3048 31.107 64.5753 30.3734 64.0851 29.4847C63.5915 28.525 63.334 27.4614 63.334 26.3822C63.334 25.3031 63.5915 24.2395 64.0851 23.2798L64.0929 23.3108Z" fill="white"/>
<path d="M79.5785 20.5537V27.5923C79.5398 28.1802 79.7255 28.761 80.0982 29.2173C80.2957 29.417 80.5344 29.5714 80.7975 29.6699C81.0607 29.7683 81.3421 29.8084 81.6222 29.7873C81.9064 29.8077 82.1917 29.7674 82.4592 29.6692C82.7266 29.5709 82.9701 29.4169 83.1735 29.2173C83.5581 28.7666 83.7515 28.1835 83.7125 27.5923V20.5537H86.5783V27.5768C86.6071 28.51 86.3748 29.4327 85.9075 30.241C85.4787 30.9516 84.852 31.5217 84.1042 31.8815C83.3179 32.2581 82.4552 32.4478 81.5834 32.436C80.7222 32.4507 79.8696 32.2634 79.0938 31.8892C78.3653 31.5274 77.7617 30.9562 77.3603 30.2488C76.9159 29.43 76.6964 28.508 76.7243 27.5768V20.5537H79.5785Z" fill="white"/>
<path d="M98.3115 27.297C98.7758 27.914 98.9933 28.6819 98.9216 29.4507C98.8499 30.2195 98.4941 30.9339 97.9237 31.4543C97.2334 32.0282 96.2755 32.3152 95.0501 32.3152H89.551V20.5531H94.8445C95.8472 20.4952 96.8391 20.7857 97.6522 21.3753C98.2043 21.8608 98.5575 22.5332 98.6441 23.2633C98.7307 23.9933 98.5446 24.7297 98.1215 25.3309C97.7506 25.7937 97.243 26.1276 96.6711 26.2849C97.3233 26.4102 97.9069 26.7703 98.3115 27.297ZM92.413 25.3115H94.29C94.6758 25.3379 95.0587 25.2282 95.372 25.0013C95.503 24.89 95.6063 24.7497 95.6736 24.5915C95.741 24.4333 95.7705 24.2615 95.7598 24.0899C95.7696 23.9167 95.7398 23.7436 95.6726 23.5836C95.6054 23.4237 95.5026 23.2811 95.372 23.1669C95.0598 22.9373 94.6768 22.8248 94.29 22.849H92.413V25.3115ZM95.6395 29.6782C95.772 29.5604 95.8758 29.4139 95.943 29.2499C96.0102 29.0859 96.039 28.9088 96.0273 28.7319C96.0369 28.5492 96.0049 28.3666 95.9337 28.198C95.8625 28.0294 95.7539 27.8791 95.6163 27.7586C95.2935 27.5087 94.8915 27.3834 94.4839 27.4056H92.4053V30.0039H94.5188C94.9192 30.0314 95.3163 29.916 95.6395 29.6782Z" fill="white"/>
<path d="M108.03 30.241H103.64L102.938 32.3158H99.9368L104.203 20.5537H107.522L111.788 32.3158H108.755L108.03 30.241ZM107.293 28.0267L105.835 23.7221L104.397 28.0267H107.293Z" fill="white"/>
<path d="M121.401 20.5537V22.8495H118.299V32.3158H115.433V22.8495H112.331V20.5537H121.401Z" fill="white"/>
<path d="M125.296 31.6674C124.384 31.1609 123.626 30.4172 123.101 29.5151C122.568 28.568 122.288 27.4995 122.288 26.4127C122.288 25.3258 122.568 24.2573 123.101 23.3102C123.626 22.4104 124.385 21.6694 125.296 21.1657C126.23 20.6593 127.275 20.394 128.337 20.394C129.399 20.394 130.444 20.6593 131.377 21.1657C132.287 21.6667 133.041 22.4087 133.557 23.3102C134.08 24.2605 134.355 25.3278 134.355 26.4127C134.355 27.4976 134.08 28.5648 133.557 29.5151C133.038 30.4165 132.285 31.1603 131.377 31.6674C130.445 32.1738 129.401 32.4391 128.341 32.4391C127.28 32.4391 126.236 32.1738 125.304 31.6674H125.296ZM130.59 28.8868C131.14 28.175 131.439 27.3008 131.439 26.4011C131.439 25.5013 131.14 24.627 130.59 23.9152C129.986 23.3236 129.174 22.9922 128.329 22.9922C127.484 22.9922 126.672 23.3236 126.068 23.9152C125.52 24.6308 125.222 25.5072 125.222 26.4088C125.222 27.3104 125.52 28.1868 126.068 28.9024C126.669 29.5006 127.482 29.8364 128.329 29.8364C129.177 29.8364 129.99 29.5006 130.59 28.9024V28.8868Z" fill="white"/>
<path d="M142.495 32.3156L140.048 27.8752H139.362V32.3156H136.496V20.5535H141.308C142.125 20.5311 142.936 20.6969 143.678 21.0383C144.288 21.3272 144.799 21.7917 145.144 22.3723C145.471 22.9459 145.639 23.5968 145.629 24.2571C145.638 25.0076 145.407 25.7415 144.969 26.3512C144.489 26.9932 143.806 27.4538 143.03 27.6581L145.745 32.3117L142.495 32.3156ZM139.362 25.8509H141.138C141.561 25.8777 141.979 25.7387 142.301 25.4631C142.437 25.3178 142.542 25.1461 142.608 24.9586C142.675 24.7711 142.703 24.5719 142.689 24.3734C142.701 24.1803 142.672 23.9869 142.606 23.8054C142.539 23.6238 142.435 23.4581 142.301 23.3186C141.979 23.043 141.561 22.9039 141.138 22.9308H139.362V25.8509Z" fill="white"/>
</svg>
