<svg width="97" height="17" viewBox="0 0 97 17" fill="none" xmlns="http://www.w3.org/2000/svg">
<path d="M8.51738 10.8649L4.15999 0.328125H0.0410156L6.45886 15.8445L6.64494 16.2962H10.3898L10.5759 15.8445L16.9937 0.328125H12.8748L8.51738 10.8649Z" fill="white"/>
<path d="M63.8978 0.362793H60.1607L59.9746 0.814427L53.5723 16.2959H57.6815L62.0292 5.78239L66.3769 16.2959H70.4862L64.0839 0.812489L63.8978 0.362793Z" fill="white"/>
<path d="M38.1803 3.54914L29.923 13.1284H37.9206V16.2957H25.2031V13.1284L33.4585 3.54914H25.4629V0.356689H38.1803V3.54914Z" fill="white"/>
<path d="M51.5134 1.80115C51.3415 1.66067 51.1639 1.52876 50.9806 1.40542C49.9629 0.712182 48.7589 0.338679 47.5249 0.333357L40.6108 0.328125L40.5987 16.3177L47.5128 16.3229C48.7469 16.32 49.9516 15.9483 50.9702 15.2561C51.1551 15.1331 51.3336 15.0011 51.5052 14.8603C53.2746 13.4154 54.4308 11.0307 54.4328 8.33416C54.4349 5.63763 53.2815 3.24958 51.5134 1.80115ZM47.5153 12.9988C47.2316 13.0616 46.9419 13.0932 46.6512 13.093L44.0578 13.091L44.065 3.56802L46.6585 3.56998C46.9491 3.57025 47.2388 3.60227 47.5223 3.66545C49.4942 4.10886 50.9771 6.03114 50.9754 8.33476C50.9737 10.6384 49.4878 12.5584 47.5153 12.9988Z" fill="white"/>
<path d="M89.0241 3.54914V6.92572H96.7329V10.029H89.0241V13.1284H96.9422V16.2957H85.2056V0.356689H97.0004V3.54914H89.0241Z" fill="white"/>
<path d="M83.4245 13.1284V16.2957H72.186V0.356689H75.958V13.1284H83.4245Z" fill="white"/>
<path d="M22.8201 0.356689H19.0171V16.2957H22.8201V0.356689Z" fill="white"/>
</svg>
